<mxfile host="app.diagrams.net" modified="2023-07-08T13:31:41.960Z" agent="Mozilla/5.0 (Macintosh; Intel Mac OS X 10_15_7) AppleWebKit/537.36 (KHTML, like Gecko) Chrome/114.0.0.0 Safari/537.36" etag="Mmp_pIDqVdlfICxUXYYX" version="21.6.1" type="github">
  <diagram name="페이지-1" id="CzQE8o6cjuPT0NPIpDWt">
    <mxGraphModel dx="2084" dy="1975" grid="1" gridSize="10" guides="1" tooltips="1" connect="1" arrows="1" fold="1" page="1" pageScale="1" pageWidth="827" pageHeight="1169" math="0" shadow="0">
      <root>
        <mxCell id="0" />
        <mxCell id="1" parent="0" />
        <mxCell id="9wW0anUBlSHxmnLjOX-P-1" value="&lt;font style=&quot;font-size: 22px;&quot;&gt;캘린더&lt;/font&gt;" style="strokeWidth=2;html=1;shape=mxgraph.flowchart.terminator;whiteSpace=wrap;" vertex="1" parent="1">
          <mxGeometry x="-30" y="-95" width="140" height="60" as="geometry" />
        </mxCell>
        <mxCell id="9wW0anUBlSHxmnLjOX-P-4" value="" style="endArrow=classic;html=1;rounded=0;exitX=1;exitY=0.5;exitDx=0;exitDy=0;exitPerimeter=0;" edge="1" parent="1" source="9wW0anUBlSHxmnLjOX-P-1">
          <mxGeometry width="50" height="50" relative="1" as="geometry">
            <mxPoint x="280" y="135" as="sourcePoint" />
            <mxPoint x="180" y="-65" as="targetPoint" />
          </mxGeometry>
        </mxCell>
        <mxCell id="9wW0anUBlSHxmnLjOX-P-6" value="아이템 리스트 출력" style="rounded=0;whiteSpace=wrap;html=1;" vertex="1" parent="1">
          <mxGeometry x="560" y="14.680000000000007" width="120" height="60" as="geometry" />
        </mxCell>
        <mxCell id="9wW0anUBlSHxmnLjOX-P-7" value="&lt;span style=&quot;font-size: 17px;&quot;&gt;일정이 있다&lt;br&gt;&lt;/span&gt;" style="html=1;whiteSpace=wrap;aspect=fixed;shape=isoRectangle;" vertex="1" parent="1">
          <mxGeometry x="370" y="-107" width="140" height="84" as="geometry" />
        </mxCell>
        <mxCell id="9wW0anUBlSHxmnLjOX-P-8" value="" style="edgeStyle=segmentEdgeStyle;endArrow=classic;html=1;curved=0;rounded=0;endSize=8;startSize=8;exitX=0.501;exitY=0.979;exitDx=0;exitDy=0;exitPerimeter=0;" edge="1" parent="1" source="9wW0anUBlSHxmnLjOX-P-7">
          <mxGeometry width="50" height="50" relative="1" as="geometry">
            <mxPoint x="439.8600000000001" y="5.684341886080802e-14" as="sourcePoint" />
            <mxPoint x="560" y="44.68000000000001" as="targetPoint" />
            <Array as="points">
              <mxPoint x="440" y="6" />
              <mxPoint x="440" y="45" />
            </Array>
          </mxGeometry>
        </mxCell>
        <mxCell id="9wW0anUBlSHxmnLjOX-P-9" value="&lt;font style=&quot;font-size: 17px;&quot;&gt;날짜선택&lt;/font&gt;" style="rounded=0;whiteSpace=wrap;html=1;" vertex="1" parent="1">
          <mxGeometry x="184" y="-95" width="120" height="60" as="geometry" />
        </mxCell>
        <mxCell id="9wW0anUBlSHxmnLjOX-P-12" value="" style="endArrow=classic;html=1;rounded=0;exitX=1;exitY=0.5;exitDx=0;exitDy=0;entryX=0.031;entryY=0.551;entryDx=0;entryDy=0;entryPerimeter=0;" edge="1" parent="1" source="9wW0anUBlSHxmnLjOX-P-9" target="9wW0anUBlSHxmnLjOX-P-7">
          <mxGeometry width="50" height="50" relative="1" as="geometry">
            <mxPoint x="400" y="365" as="sourcePoint" />
            <mxPoint x="490" y="175" as="targetPoint" />
          </mxGeometry>
        </mxCell>
        <mxCell id="9wW0anUBlSHxmnLjOX-P-13" value="" style="rounded=0;whiteSpace=wrap;html=1;" vertex="1" parent="1">
          <mxGeometry x="560" y="-220" width="120" height="60" as="geometry" />
        </mxCell>
        <mxCell id="9wW0anUBlSHxmnLjOX-P-14" value="" style="edgeStyle=segmentEdgeStyle;endArrow=classic;html=1;curved=0;rounded=0;endSize=8;startSize=8;exitX=0.498;exitY=0.023;exitDx=0;exitDy=0;exitPerimeter=0;" edge="1" parent="1" source="9wW0anUBlSHxmnLjOX-P-7">
          <mxGeometry width="50" height="50" relative="1" as="geometry">
            <mxPoint x="440" y="-101" as="sourcePoint" />
            <mxPoint x="560" y="-190" as="targetPoint" />
            <Array as="points">
              <mxPoint x="440" y="-111" />
              <mxPoint x="440" y="-111" />
              <mxPoint x="440" y="-190" />
            </Array>
          </mxGeometry>
        </mxCell>
        <mxCell id="9wW0anUBlSHxmnLjOX-P-20" value="&lt;span style=&quot;font-size: 22px;&quot;&gt;igroup값, iplan값 &lt;br&gt;insert&lt;/span&gt;" style="strokeWidth=2;html=1;shape=mxgraph.flowchart.terminator;whiteSpace=wrap;" vertex="1" parent="1">
          <mxGeometry x="70" y="540" width="216" height="80" as="geometry" />
        </mxCell>
        <mxCell id="9wW0anUBlSHxmnLjOX-P-21" value="" style="endArrow=classic;html=1;rounded=0;exitX=1;exitY=0.5;exitDx=0;exitDy=0;exitPerimeter=0;" edge="1" parent="1" source="9wW0anUBlSHxmnLjOX-P-20">
          <mxGeometry width="50" height="50" relative="1" as="geometry">
            <mxPoint x="394" y="620" as="sourcePoint" />
            <mxPoint x="374" y="580" as="targetPoint" />
          </mxGeometry>
        </mxCell>
        <mxCell id="9wW0anUBlSHxmnLjOX-P-25" value="" style="endArrow=classic;html=1;rounded=0;exitX=1;exitY=0.5;exitDx=0;exitDy=0;" edge="1" parent="1">
          <mxGeometry width="50" height="50" relative="1" as="geometry">
            <mxPoint x="494" y="580" as="sourcePoint" />
            <mxPoint x="640" y="580" as="targetPoint" />
          </mxGeometry>
        </mxCell>
        <mxCell id="9wW0anUBlSHxmnLjOX-P-26" value="" style="edgeStyle=segmentEdgeStyle;endArrow=classic;html=1;curved=0;rounded=0;endSize=8;startSize=8;" edge="1" parent="1">
          <mxGeometry width="50" height="50" relative="1" as="geometry">
            <mxPoint x="550" y="580" as="sourcePoint" />
            <mxPoint x="640" y="320" as="targetPoint" />
            <Array as="points">
              <mxPoint x="550" y="320" />
              <mxPoint x="600" y="320" />
            </Array>
          </mxGeometry>
        </mxCell>
        <mxCell id="9wW0anUBlSHxmnLjOX-P-29" value="아이템 추가" style="rounded=0;whiteSpace=wrap;html=1;" vertex="1" parent="1">
          <mxGeometry x="950" y="380" width="120" height="40" as="geometry" />
        </mxCell>
        <mxCell id="9wW0anUBlSHxmnLjOX-P-33" value="아이템 리스트" style="shape=document;whiteSpace=wrap;html=1;boundedLbl=1;" vertex="1" parent="1">
          <mxGeometry x="374" y="550" width="120" height="80" as="geometry" />
        </mxCell>
        <mxCell id="9wW0anUBlSHxmnLjOX-P-34" value="카테고리,&lt;br&gt;제품명, 수량, 단위&amp;nbsp;" style="shape=parallelogram;perimeter=parallelogramPerimeter;whiteSpace=wrap;html=1;fixedSize=1;" vertex="1" parent="1">
          <mxGeometry x="780" y="370" width="120" height="60" as="geometry" />
        </mxCell>
        <mxCell id="9wW0anUBlSHxmnLjOX-P-35" value="" style="endArrow=classic;html=1;rounded=0;entryX=0;entryY=0.5;entryDx=0;entryDy=0;exitX=1;exitY=0.5;exitDx=0;exitDy=0;" edge="1" parent="1" source="9wW0anUBlSHxmnLjOX-P-34" target="9wW0anUBlSHxmnLjOX-P-29">
          <mxGeometry width="50" height="50" relative="1" as="geometry">
            <mxPoint x="1130" y="450" as="sourcePoint" />
            <mxPoint x="1150" y="410" as="targetPoint" />
          </mxGeometry>
        </mxCell>
        <mxCell id="9wW0anUBlSHxmnLjOX-P-36" value="아이템 추가&lt;br&gt;버튼 클릭" style="html=1;whiteSpace=wrap;aspect=fixed;shape=isoRectangle;" vertex="1" parent="1">
          <mxGeometry x="640" y="284" width="120" height="72" as="geometry" />
        </mxCell>
        <mxCell id="9wW0anUBlSHxmnLjOX-P-38" value="" style="edgeStyle=segmentEdgeStyle;endArrow=classic;html=1;curved=0;rounded=0;endSize=8;startSize=8;exitX=0.499;exitY=0.969;exitDx=0;exitDy=0;exitPerimeter=0;entryX=0;entryY=0.5;entryDx=0;entryDy=0;" edge="1" parent="1" source="9wW0anUBlSHxmnLjOX-P-36" target="9wW0anUBlSHxmnLjOX-P-34">
          <mxGeometry width="50" height="50" relative="1" as="geometry">
            <mxPoint x="700" y="356" as="sourcePoint" />
            <mxPoint x="760" y="390" as="targetPoint" />
            <Array as="points">
              <mxPoint x="700" y="400" />
            </Array>
          </mxGeometry>
        </mxCell>
        <mxCell id="9wW0anUBlSHxmnLjOX-P-39" value="YES" style="text;html=1;strokeColor=none;fillColor=none;align=center;verticalAlign=middle;whiteSpace=wrap;rounded=0;" vertex="1" parent="1">
          <mxGeometry x="710" y="370" width="60" height="30" as="geometry" />
        </mxCell>
        <mxCell id="9wW0anUBlSHxmnLjOX-P-40" value="" style="edgeStyle=segmentEdgeStyle;endArrow=classic;html=1;curved=0;rounded=0;endSize=8;startSize=8;exitX=0.503;exitY=0.028;exitDx=0;exitDy=0;exitPerimeter=0;" edge="1" parent="1" source="9wW0anUBlSHxmnLjOX-P-36">
          <mxGeometry width="50" height="50" relative="1" as="geometry">
            <mxPoint x="700" y="280" as="sourcePoint" />
            <mxPoint x="790" y="240" as="targetPoint" />
            <Array as="points">
              <mxPoint x="700" y="240" />
            </Array>
          </mxGeometry>
        </mxCell>
        <mxCell id="9wW0anUBlSHxmnLjOX-P-41" value="NO" style="text;html=1;strokeColor=none;fillColor=none;align=center;verticalAlign=middle;whiteSpace=wrap;rounded=0;" vertex="1" parent="1">
          <mxGeometry x="710" y="240" width="60" height="30" as="geometry" />
        </mxCell>
        <mxCell id="9wW0anUBlSHxmnLjOX-P-42" value="종료" style="strokeWidth=2;html=1;shape=mxgraph.flowchart.terminator;whiteSpace=wrap;" vertex="1" parent="1">
          <mxGeometry x="790" y="210" width="100" height="60" as="geometry" />
        </mxCell>
        <mxCell id="9wW0anUBlSHxmnLjOX-P-43" value="아이템 클릭" style="html=1;whiteSpace=wrap;aspect=fixed;shape=isoRectangle;" vertex="1" parent="1">
          <mxGeometry x="640" y="544" width="120" height="72" as="geometry" />
        </mxCell>
        <mxCell id="9wW0anUBlSHxmnLjOX-P-44" value="" style="edgeStyle=segmentEdgeStyle;endArrow=classic;html=1;curved=0;rounded=0;endSize=8;startSize=8;exitX=0.503;exitY=0.028;exitDx=0;exitDy=0;exitPerimeter=0;" edge="1" source="9wW0anUBlSHxmnLjOX-P-43" parent="1">
          <mxGeometry width="50" height="50" relative="1" as="geometry">
            <mxPoint x="700" y="540" as="sourcePoint" />
            <mxPoint x="790" y="500" as="targetPoint" />
            <Array as="points">
              <mxPoint x="700" y="500" />
            </Array>
          </mxGeometry>
        </mxCell>
        <mxCell id="9wW0anUBlSHxmnLjOX-P-45" value="NO" style="text;html=1;strokeColor=none;fillColor=none;align=center;verticalAlign=middle;whiteSpace=wrap;rounded=0;" vertex="1" parent="1">
          <mxGeometry x="710" y="500" width="60" height="30" as="geometry" />
        </mxCell>
        <mxCell id="9wW0anUBlSHxmnLjOX-P-46" value="종료" style="strokeWidth=2;html=1;shape=mxgraph.flowchart.terminator;whiteSpace=wrap;" vertex="1" parent="1">
          <mxGeometry x="790" y="470" width="100" height="60" as="geometry" />
        </mxCell>
        <mxCell id="9wW0anUBlSHxmnLjOX-P-47" value="" style="edgeStyle=segmentEdgeStyle;endArrow=classic;html=1;curved=0;rounded=0;endSize=8;startSize=8;exitX=0.499;exitY=0.969;exitDx=0;exitDy=0;exitPerimeter=0;entryX=0;entryY=0.5;entryDx=0;entryDy=0;" edge="1" source="9wW0anUBlSHxmnLjOX-P-43" target="9wW0anUBlSHxmnLjOX-P-49" parent="1">
          <mxGeometry width="50" height="50" relative="1" as="geometry">
            <mxPoint x="700" y="616" as="sourcePoint" />
            <mxPoint x="760" y="650" as="targetPoint" />
            <Array as="points">
              <mxPoint x="700" y="660" />
            </Array>
          </mxGeometry>
        </mxCell>
        <mxCell id="9wW0anUBlSHxmnLjOX-P-48" value="YES" style="text;html=1;strokeColor=none;fillColor=none;align=center;verticalAlign=middle;whiteSpace=wrap;rounded=0;" vertex="1" parent="1">
          <mxGeometry x="710" y="630" width="60" height="30" as="geometry" />
        </mxCell>
        <mxCell id="9wW0anUBlSHxmnLjOX-P-49" value="iproduct값, &lt;br&gt;카테고리,제품명, &lt;br&gt;수량, 단위&amp;nbsp;" style="shape=parallelogram;perimeter=parallelogramPerimeter;whiteSpace=wrap;html=1;fixedSize=1;" vertex="1" parent="1">
          <mxGeometry x="780" y="630" width="120" height="60" as="geometry" />
        </mxCell>
        <mxCell id="9wW0anUBlSHxmnLjOX-P-50" value="" style="endArrow=classic;html=1;rounded=0;entryX=0;entryY=0.5;entryDx=0;entryDy=0;exitX=1;exitY=0.5;exitDx=0;exitDy=0;" edge="1" source="9wW0anUBlSHxmnLjOX-P-49" target="9wW0anUBlSHxmnLjOX-P-51" parent="1">
          <mxGeometry width="50" height="50" relative="1" as="geometry">
            <mxPoint x="1130" y="710" as="sourcePoint" />
            <mxPoint x="1150" y="670" as="targetPoint" />
          </mxGeometry>
        </mxCell>
        <mxCell id="9wW0anUBlSHxmnLjOX-P-51" value="아이템수정" style="rounded=0;whiteSpace=wrap;html=1;" vertex="1" parent="1">
          <mxGeometry x="950" y="640" width="120" height="40" as="geometry" />
        </mxCell>
        <mxCell id="9wW0anUBlSHxmnLjOX-P-52" value="아이템 삭제" style="rounded=0;whiteSpace=wrap;html=1;" vertex="1" parent="1">
          <mxGeometry x="950" y="910" width="120" height="40" as="geometry" />
        </mxCell>
        <mxCell id="9wW0anUBlSHxmnLjOX-P-53" value="iproduct값" style="shape=parallelogram;perimeter=parallelogramPerimeter;whiteSpace=wrap;html=1;fixedSize=1;" vertex="1" parent="1">
          <mxGeometry x="780" y="900" width="120" height="60" as="geometry" />
        </mxCell>
        <mxCell id="9wW0anUBlSHxmnLjOX-P-54" value="" style="endArrow=classic;html=1;rounded=0;entryX=0;entryY=0.5;entryDx=0;entryDy=0;exitX=1;exitY=0.5;exitDx=0;exitDy=0;" edge="1" source="9wW0anUBlSHxmnLjOX-P-53" target="9wW0anUBlSHxmnLjOX-P-52" parent="1">
          <mxGeometry width="50" height="50" relative="1" as="geometry">
            <mxPoint x="1130" y="980" as="sourcePoint" />
            <mxPoint x="1150" y="940" as="targetPoint" />
          </mxGeometry>
        </mxCell>
        <mxCell id="9wW0anUBlSHxmnLjOX-P-55" value="" style="edgeStyle=segmentEdgeStyle;endArrow=classic;html=1;curved=0;rounded=0;endSize=8;startSize=8;exitX=0.499;exitY=0.969;exitDx=0;exitDy=0;exitPerimeter=0;entryX=0;entryY=0.5;entryDx=0;entryDy=0;" edge="1" source="9wW0anUBlSHxmnLjOX-P-61" target="9wW0anUBlSHxmnLjOX-P-53" parent="1">
          <mxGeometry width="50" height="50" relative="1" as="geometry">
            <mxPoint x="700" y="886" as="sourcePoint" />
            <mxPoint x="760" y="920" as="targetPoint" />
            <Array as="points">
              <mxPoint x="700" y="930" />
            </Array>
          </mxGeometry>
        </mxCell>
        <mxCell id="9wW0anUBlSHxmnLjOX-P-56" value="YES" style="text;html=1;strokeColor=none;fillColor=none;align=center;verticalAlign=middle;whiteSpace=wrap;rounded=0;" vertex="1" parent="1">
          <mxGeometry x="710" y="900" width="60" height="30" as="geometry" />
        </mxCell>
        <mxCell id="9wW0anUBlSHxmnLjOX-P-57" value="" style="edgeStyle=segmentEdgeStyle;endArrow=classic;html=1;curved=0;rounded=0;endSize=8;startSize=8;exitX=0.503;exitY=0.028;exitDx=0;exitDy=0;exitPerimeter=0;" edge="1" source="9wW0anUBlSHxmnLjOX-P-61" parent="1">
          <mxGeometry width="50" height="50" relative="1" as="geometry">
            <mxPoint x="700" y="810" as="sourcePoint" />
            <mxPoint x="790" y="770" as="targetPoint" />
            <Array as="points">
              <mxPoint x="700" y="770" />
            </Array>
          </mxGeometry>
        </mxCell>
        <mxCell id="9wW0anUBlSHxmnLjOX-P-58" value="NO" style="text;html=1;strokeColor=none;fillColor=none;align=center;verticalAlign=middle;whiteSpace=wrap;rounded=0;" vertex="1" parent="1">
          <mxGeometry x="710" y="770" width="60" height="30" as="geometry" />
        </mxCell>
        <mxCell id="9wW0anUBlSHxmnLjOX-P-59" value="종료" style="strokeWidth=2;html=1;shape=mxgraph.flowchart.terminator;whiteSpace=wrap;" vertex="1" parent="1">
          <mxGeometry x="790" y="740" width="100" height="60" as="geometry" />
        </mxCell>
        <mxCell id="9wW0anUBlSHxmnLjOX-P-60" value="" style="edgeStyle=segmentEdgeStyle;endArrow=classic;html=1;curved=0;rounded=0;endSize=8;startSize=8;" edge="1" parent="1">
          <mxGeometry width="50" height="50" relative="1" as="geometry">
            <mxPoint x="550" y="580" as="sourcePoint" />
            <mxPoint x="640" y="850" as="targetPoint" />
            <Array as="points">
              <mxPoint x="550" y="850" />
              <mxPoint x="600" y="850" />
            </Array>
          </mxGeometry>
        </mxCell>
        <mxCell id="9wW0anUBlSHxmnLjOX-P-61" value="아이템 삭제&lt;br&gt;버튼 클릭" style="html=1;whiteSpace=wrap;aspect=fixed;shape=isoRectangle;" vertex="1" parent="1">
          <mxGeometry x="640" y="814" width="120" height="72" as="geometry" />
        </mxCell>
      </root>
    </mxGraphModel>
  </diagram>
</mxfile>
